<svg width="16" height="19" viewBox="0 0 16 19" fill="none" xmlns="http://www.w3.org/2000/svg">
<path d="M5.3335 6.66602H6.66683V14.666H5.3335V6.66602Z" fill="#F44771"/>
<path d="M9.3335 6.66602H10.6668V14.666H9.3335V6.66602Z" fill="#F44771"/>
<path d="M0 2.66602V3.99935H1.33333V17.3327C1.33333 17.6863 1.47381 18.0254 1.72386 18.2755C1.97391 18.5255 2.31304 18.666 2.66667 18.666H13.3333C13.687 18.666 14.0261 18.5255 14.2761 18.2755C14.5262 18.0254 14.6667 17.6863 14.6667 17.3327V3.99935H16V2.66602H0ZM2.66667 17.3327V3.99935H13.3333V17.3327H2.66667Z" fill="#F44771"/>
<path d="M5.3335 0H10.6668V1.33333H5.3335V0Z" fill="#F44771"/>
</svg>
